<svg width="1335" height="110" viewBox="0 0 1335 110" fill="none" xmlns="http://www.w3.org/2000/svg">
<path d="M571.578 88.1982C407.818 77.0991 122.293 98.1081 0 110V0H1335C1245.01 151.622 776.278 102.072 571.578 88.1982Z" fill="url(#paint0_linear_0_5964)"/>
<path d="M46.4062 29.2695H52.5586L58.5742 38.4688L64.6484 29.2695H70.8008L61.6602 43.1758L71.3672 58H65.2148L58.5742 47.9023L51.9922 58H45.8008L55.5078 43.1758L46.4062 29.2695ZM89.082 28.5469C93.1445 28.5469 96.6341 30.0182 99.5508 32.9609C102.48 35.9036 103.945 39.4909 103.945 43.7227C103.945 47.9154 102.5 51.4635 99.6094 54.3672C96.7318 57.2708 93.2357 58.7227 89.1211 58.7227C84.8112 58.7227 81.2305 57.2318 78.3789 54.25C75.5273 51.2682 74.1016 47.7266 74.1016 43.625C74.1016 40.8776 74.7656 38.3516 76.0938 36.0469C77.4219 33.7422 79.2448 31.9193 81.5625 30.5781C83.8932 29.224 86.3997 28.5469 89.082 28.5469ZM89.0234 33.8984C86.3672 33.8984 84.1341 34.8229 82.3242 36.6719C80.5143 38.5208 79.6094 40.8711 79.6094 43.7227C79.6094 46.8997 80.7487 49.4128 83.0273 51.2617C84.7982 52.707 86.8294 53.4297 89.1211 53.4297C91.7122 53.4297 93.9193 52.4922 95.7422 50.6172C97.5651 48.7422 98.4766 46.431 98.4766 43.6836C98.4766 40.9492 97.5586 38.638 95.7227 36.75C93.8867 34.849 91.6536 33.8984 89.0234 33.8984ZM109.082 58V29.2695H124.102V34.6016H114.551V40.1094H115.742C118.164 40.1094 120.143 40.3763 121.68 40.9102C123.216 41.444 124.492 42.4531 125.508 43.9375C126.536 45.4089 127.051 47.1536 127.051 49.1719C127.051 51.1771 126.667 52.7786 125.898 53.9766C125.13 55.1615 124.069 56.1315 122.715 56.8867C121.374 57.6289 119.512 58 117.129 58H109.082ZM114.551 44.9922V52.7852H115.918C118.418 52.7852 120 52.4596 120.664 51.8086C121.328 51.1576 121.66 50.2786 121.66 49.1719C121.66 46.3854 119.668 44.9922 115.684 44.9922H114.551ZM150.469 58L142.52 36.8867L134.434 58H128.633L139.707 29.2695H145.254L156.309 58H150.469ZM161.973 36.2031C162.819 36.2031 163.542 36.5026 164.141 37.1016C164.74 37.7005 165.039 38.4232 165.039 39.2695C165.039 40.1029 164.74 40.819 164.141 41.418C163.542 42.0169 162.819 42.3164 161.973 42.3164C161.126 42.3164 160.404 42.0234 159.805 41.4375C159.206 40.8385 158.906 40.1159 158.906 39.2695C158.906 38.4232 159.206 37.7005 159.805 37.1016C160.404 36.5026 161.126 36.2031 161.973 36.2031ZM161.973 52.4336C162.819 52.4336 163.542 52.7331 164.141 53.332C164.74 53.918 165.039 54.6341 165.039 55.4805C165.039 56.3268 164.74 57.0495 164.141 57.6484C163.542 58.2474 162.819 58.5469 161.973 58.5469C161.126 58.5469 160.404 58.2474 159.805 57.6484C159.206 57.0495 158.906 56.3268 158.906 55.4805C158.906 54.6341 159.206 53.918 159.805 53.332C160.404 52.7331 161.126 52.4336 161.973 52.4336ZM194.492 50.1484L201.016 36.75H204.531L209.844 58H204.629L201.797 45.5391L195.469 58H193.281L187.09 45.5391L184.238 58H179.043L184.355 36.75H187.871L194.492 50.1484ZM215.625 58H212.793V36.75H217.988V49.2305L228.867 36.75H231.426V58H226.23V45.7734L215.625 58ZM251.66 56.1836C249.798 57.7982 247.767 58.6055 245.566 58.6055C242.897 58.6055 240.579 57.5508 238.613 55.4414C236.647 53.319 235.664 50.6693 235.664 47.4922C235.664 44.1719 236.621 41.4766 238.535 39.4062C240.449 37.3229 242.747 36.2812 245.43 36.2812C247.826 36.2812 249.902 37.0951 251.66 38.7227V28.5469H256.953V38.7227C258.711 37.043 260.788 36.2031 263.184 36.2031C264.889 36.2031 266.478 36.6523 267.949 37.5508C269.421 38.4492 270.618 39.7383 271.543 41.418C272.467 43.0977 272.93 45.0964 272.93 47.4141C272.93 50.6562 271.934 53.3255 269.941 55.4219C267.962 57.5052 265.664 58.5469 263.047 58.5469C260.846 58.5469 258.815 57.7591 256.953 56.1836V65.7734H251.66V56.1836ZM267.598 47.375C267.598 45.5651 267.083 44.0807 266.055 42.9219C265.026 41.75 263.698 41.1641 262.07 41.1641C260.664 41.1641 259.434 41.724 258.379 42.8438C257.337 43.9505 256.816 45.5326 256.816 47.5898C256.816 49.5039 257.318 51.0013 258.32 52.082C259.336 53.1628 260.592 53.7031 262.09 53.7031C263.639 53.7031 264.941 53.1107 265.996 51.9258C267.064 50.7279 267.598 49.2109 267.598 47.375ZM251.816 47.5703C251.816 46.1771 251.582 45.0378 251.113 44.1523C250.645 43.2539 250.013 42.5378 249.219 42.0039C248.438 41.4701 247.546 41.2031 246.543 41.2031C244.824 41.2031 243.477 41.8151 242.5 43.0391C241.523 44.25 241.035 45.7083 241.035 47.4141C241.035 49.237 241.562 50.7474 242.617 51.9453C243.672 53.1432 244.974 53.7422 246.523 53.7422C248.021 53.7422 249.277 53.2083 250.293 52.1406C251.309 51.0599 251.816 49.5365 251.816 47.5703ZM282.48 44.4062H284.062C286.289 44.4062 287.995 44.582 289.18 44.9336C290.378 45.2721 291.387 45.9883 292.207 47.082C293.027 48.1758 293.438 49.5495 293.438 51.2031C293.438 52.8438 293.066 54.2109 292.324 55.3047C291.582 56.3854 290.632 57.1081 289.473 57.4727C288.327 57.8242 286.712 58 284.629 58H277.129V36.75H282.48V44.4062ZM282.48 53.8984H284.102C285.065 53.8984 285.762 53.8333 286.191 53.7031C286.621 53.5599 286.999 53.293 287.324 52.9023C287.65 52.5117 287.812 52.0365 287.812 51.4766C287.812 49.6536 286.771 48.7422 284.688 48.7422H282.48V53.8984ZM297.148 36.75H302.48V58H297.148V36.75ZM321.914 58H319.082V36.75H324.277V49.2305L335.156 36.75H337.715V58H332.52V45.7734L321.914 58ZM359.629 36.75V39.0938C360.592 38.1302 361.634 37.4076 362.754 36.9258C363.874 36.444 365.072 36.2031 366.348 36.2031C369.121 36.2031 371.478 37.2513 373.418 39.3477C375.358 41.444 376.328 44.1328 376.328 47.4141C376.328 50.5781 375.326 53.2279 373.32 55.3633C371.315 57.4857 368.939 58.5469 366.191 58.5469C364.967 58.5469 363.828 58.332 362.773 57.9023C361.719 57.4596 360.671 56.7435 359.629 55.7539V65.7734H354.336V36.75H359.629ZM365.234 41.125C363.555 41.125 362.161 41.6979 361.055 42.8438C359.948 43.9896 359.395 45.487 359.395 47.3359C359.395 49.224 359.948 50.7539 361.055 51.9258C362.161 53.0846 363.555 53.6641 365.234 53.6641C366.862 53.6641 368.229 53.0716 369.336 51.8867C370.456 50.7018 371.016 49.1914 371.016 47.3555C371.016 45.5326 370.469 44.0417 369.375 42.8828C368.281 41.7109 366.901 41.125 365.234 41.125ZM402.031 48.918H384.902C385.15 50.4284 385.807 51.6328 386.875 52.5312C387.956 53.4167 389.329 53.8594 390.996 53.8594C392.988 53.8594 394.701 53.1628 396.133 51.7695L400.625 53.8789C399.505 55.4674 398.164 56.6458 396.602 57.4141C395.039 58.1693 393.184 58.5469 391.035 58.5469C387.702 58.5469 384.987 57.4987 382.891 55.4023C380.794 53.293 379.746 50.6562 379.746 47.4922C379.746 44.25 380.788 41.5612 382.871 39.4258C384.967 37.2773 387.591 36.2031 390.742 36.2031C394.089 36.2031 396.81 37.2773 398.906 39.4258C401.003 41.5612 402.051 44.3867 402.051 47.9023L402.031 48.918ZM396.68 44.7188C396.328 43.5339 395.632 42.5703 394.59 41.8281C393.561 41.0859 392.363 40.7148 390.996 40.7148C389.512 40.7148 388.21 41.1315 387.09 41.9648C386.387 42.4857 385.736 43.4036 385.137 44.7188H396.68ZM422.07 36.75H427.383V58H422.07V55.7539C421.029 56.7435 419.98 57.4596 418.926 57.9023C417.884 58.332 416.751 58.5469 415.527 58.5469C412.78 58.5469 410.404 57.4857 408.398 55.3633C406.393 53.2279 405.391 50.5781 405.391 47.4141C405.391 44.1328 406.361 41.444 408.301 39.3477C410.241 37.2513 412.598 36.2031 415.371 36.2031C416.647 36.2031 417.845 36.444 418.965 36.9258C420.085 37.4076 421.12 38.1302 422.07 39.0938V36.75ZM416.465 41.125C414.811 41.125 413.438 41.7109 412.344 42.8828C411.25 44.0417 410.703 45.5326 410.703 47.3555C410.703 49.1914 411.257 50.7018 412.363 51.8867C413.483 53.0716 414.857 53.6641 416.484 53.6641C418.164 53.6641 419.557 53.0846 420.664 51.9258C421.771 50.7539 422.324 49.224 422.324 47.3359C422.324 45.487 421.771 43.9896 420.664 42.8438C419.557 41.6979 418.158 41.125 416.465 41.125ZM451.758 58H446.328L441.016 44.582L435.605 58H430.195L439.258 36.75H442.695L451.758 58ZM459.902 44.4062H461.484C463.711 44.4062 465.417 44.582 466.602 44.9336C467.799 45.2721 468.809 45.9883 469.629 47.082C470.449 48.1758 470.859 49.5495 470.859 51.2031C470.859 52.8438 470.488 54.2109 469.746 55.3047C469.004 56.3854 468.053 57.1081 466.895 57.4727C465.749 57.8242 464.134 58 462.051 58H454.551V36.75H459.902V44.4062ZM459.902 53.8984H461.523C462.487 53.8984 463.184 53.8333 463.613 53.7031C464.043 53.5599 464.421 53.293 464.746 52.9023C465.072 52.5117 465.234 52.0365 465.234 51.4766C465.234 49.6536 464.193 48.7422 462.109 48.7422H459.902V53.8984ZM480.293 44.4062H488.223V36.75H493.574V58H488.223V49.1914H480.293V58H474.941V36.75H480.293V44.4062ZM508.965 36.2031C510.97 36.2031 512.852 36.7044 514.609 37.707C516.38 38.7096 517.76 40.0703 518.75 41.7891C519.74 43.5078 520.234 45.3633 520.234 47.3555C520.234 49.3607 519.733 51.2357 518.73 52.9805C517.741 54.7253 516.387 56.0924 514.668 57.082C512.949 58.0586 511.055 58.5469 508.984 58.5469C505.938 58.5469 503.333 57.4661 501.172 55.3047C499.023 53.1302 497.949 50.4935 497.949 47.3945C497.949 44.0742 499.167 41.3073 501.602 39.0938C503.737 37.1667 506.191 36.2031 508.965 36.2031ZM509.043 41.2227C507.389 41.2227 506.009 41.8021 504.902 42.9609C503.809 44.1068 503.262 45.5781 503.262 47.375C503.262 49.224 503.802 50.7214 504.883 51.8672C505.977 53.013 507.357 53.5859 509.023 53.5859C510.69 53.5859 512.077 53.0065 513.184 51.8477C514.29 50.6888 514.844 49.1979 514.844 47.375C514.844 45.5521 514.297 44.0742 513.203 42.9414C512.122 41.7956 510.736 41.2227 509.043 41.2227ZM545.41 41.0469L540.977 43.4883C540.143 42.6159 539.316 42.0104 538.496 41.6719C537.689 41.3333 536.738 41.1641 535.645 41.1641C533.652 41.1641 532.038 41.763 530.801 42.9609C529.577 44.1458 528.965 45.6693 528.965 47.5312C528.965 49.3411 529.557 50.819 530.742 51.9648C531.927 53.1107 533.483 53.6836 535.41 53.6836C537.793 53.6836 539.648 52.8698 540.977 51.2422L545.176 54.1133C542.897 57.069 539.681 58.5469 535.527 58.5469C531.79 58.5469 528.861 57.4401 526.738 55.2266C524.629 53.013 523.574 50.4219 523.574 47.4531C523.574 45.3958 524.089 43.5013 525.117 41.7695C526.146 40.0378 527.578 38.6771 529.414 37.6875C531.263 36.6979 533.327 36.2031 535.605 36.2031C537.715 36.2031 539.609 36.6263 541.289 37.4727C542.969 38.306 544.342 39.4974 545.41 41.0469ZM548.34 36.75H568.145V41.8281H561.094V58H555.742V41.8281H548.34V36.75ZM576.973 44.4062H578.555C580.781 44.4062 582.487 44.582 583.672 44.9336C584.87 45.2721 585.879 45.9883 586.699 47.082C587.52 48.1758 587.93 49.5495 587.93 51.2031C587.93 52.8438 587.559 54.2109 586.816 55.3047C586.074 56.3854 585.124 57.1081 583.965 57.4727C582.819 57.8242 581.204 58 579.121 58H571.621V36.75H576.973V44.4062ZM576.973 53.8984H578.594C579.557 53.8984 580.254 53.8333 580.684 53.7031C581.113 53.5599 581.491 53.293 581.816 52.9023C582.142 52.5117 582.305 52.0365 582.305 51.4766C582.305 49.6536 581.263 48.7422 579.18 48.7422H576.973V53.8984Z" fill="#01457A"/>
<defs>
<linearGradient id="paint0_linear_0_5964" x1="-1.17867e-06" y1="55.932" x2="1346.52" y2="55.932" gradientUnits="userSpaceOnUse">
<stop stop-color="#FBFDFF"/>
<stop offset="1" stop-color="#D8EFFF"/>
</linearGradient>
</defs>
</svg>
